<svg xmlns="http://www.w3.org/2000/svg" width="900" height="1125" viewBox="0 0 900 1125">
  <defs>
    <linearGradient id="bg" x1="0" x2="1" y1="0" y2="1">
      <stop offset="0" stop-color="#fce7f3"/>
      <stop offset="1" stop-color="#ede9fe"/>
    </linearGradient>
    <filter id="shadow" x="-20%" y="-20%" width="140%" height="140%">
      <feDropShadow dx="0" dy="22" stdDeviation="22" flood-color="#000" flood-opacity="0.18"/>
    </filter>
  </defs>
  <rect width="900" height="1125" rx="70" fill="url(#bg)"/>
  <circle cx="690" cy="180" r="120" fill="#ffffff" opacity="0.22"/>
  <circle cx="170" cy="930" r="170" fill="#ffffff" opacity="0.18"/>
  <g filter="url(#shadow)">
    <rect x="230" y="235" width="440" height="650" rx="220" fill="#fff" opacity="0.96"/>
    <circle cx="450" cy="355" r="92" fill="#fed7aa"/>
    <path d="M300 800 C330 595, 570 595, 600 800 L630 875 L270 875 Z" fill="#ec4899"/>
    <path d="M335 610 C385 560, 515 560, 565 610 L520 680 C485 650, 415 650, 380 680 Z" fill="#a78bfa"/>
    <path d="M325 510 Q450 420 575 510" stroke="#a78bfa" stroke-width="36" stroke-linecap="round" fill="none"/>
    <circle cx="382" cy="350" r="14" fill="#475569"/>
    <circle cx="518" cy="350" r="14" fill="#475569"/>
    <path d="M415 395 Q450 420 485 395" stroke="#475569" stroke-width="10" stroke-linecap="round" fill="none"/>
    <path d="M260 595 C120 450 250 340 400 548" fill="#fbcfe8" opacity="0.75"/><path d="M640 595 C780 450 650 340 500 548" fill="#ddd6fe" opacity="0.75"/><path d="M450 520 L485 590 L560 600 L505 650 L520 725 L450 688 L380 725 L395 650 L340 600 L415 590 Z" fill="#fef3c7" opacity="0.95"/>
  </g>
  <rect x="140" y="945" width="620" height="90" rx="45" fill="#fff" opacity="0.90"/>
  <text x="450" y="1003" text-anchor="middle" font-family="Arial, sans-serif" font-size="44" font-weight="800" fill="#111827">Fairy Costume</text>
</svg>